# xmcd
#
# Track frame offsets:
# 150
# 12262
# 30600
# 48350
# 61800
# 82387
# 101575
# 121900
# 143550
# 159900
# 174900
#
# Disc length: 2581 seconds
#
#
# Revision: 0
# Processed by: cddbd v1.5.1PL2 Copyright (c) Steve Scherf et al.
# Submitted via: FreeRIP 2.30 
#
DISCID=820a130b
DTITLE=Yank Rachell - the blue goose album
DYEAR=1999
DGENRE=Blues
TTITLE0=1-Toppin' That Thing
TTITLE1=2-Pack My Clothes And Go
TTITLE2=3-Skinny Woman Blues
TTITLE3=4-Matchbox Blues
TTITLE4=5- Texas Tony
TTITLE5=6-Des Moines, Iowa
TTITLE6=7-Shotgun Blues
TTITLE7=8-Sugar Farm Blues
TTITLE8=9-Diving Duck Blues
TTITLE9=10-Wadie Green
TTITLE10=11-Peach Tree Blues
EXTD=The master blues mandolin player recorded these in 1973. He passed in 1997 at the age of 87. Many of these tunes were first recorded in 1934 often with Sleepy John Estes.
EXTT0=
EXTT1=
EXTT2=
EXTT3=
EXTT4=
EXTT5=
EXTT6=
EXTT7=
EXTT8=
EXTT9=
EXTT10=
PLAYORDER=
